<svg width="18" height="18" viewBox="0 0 18 18" fill="none" xmlns="http://www.w3.org/2000/svg">
<g clip-path="url(#clip0_205_48)">
<path d="M15.7791 7.72117V6.98861L11.3837 2.59326H4.05813C3.24499 2.59326 2.59302 3.24524 2.59302 4.05838V14.3142C2.59302 15.1273 3.25232 15.7793 4.05813 15.7793H8.45348V14.4094L14.5996 8.26326C14.922 7.94094 15.3322 7.76512 15.7791 7.72117ZM10.6512 3.6921L14.6802 7.72117H10.6512V3.6921ZM17.1343 10.7906L16.4164 11.5085L14.922 10.0141L15.6399 9.29617C15.7791 9.14966 16.0208 9.14966 16.1673 9.29617L17.1343 10.2631C17.2808 10.4097 17.2808 10.6514 17.1343 10.7906ZM14.4092 10.5269L15.9036 12.0213L11.413 16.5119H9.9186V15.0174L14.4092 10.5269Z" fill="white"/>
</g>
<defs>
<clipPath id="clip0_205_48">
<rect width="17.5814" height="17.5814" fill="white" transform="translate(0.395386 0.395508)"/>
</clipPath>
</defs>
</svg>
